PathFileType	4	(X/Y/Z)	Patient4_TMGait_0pt6_02_left_06.trc.trc
DataRate	CameraRate	NumFrames	NumMarkers	Units	OrigDataRate	OrigDataStartFrame	OrigNumFrames
81.871345029240	81.871345029240	4	33	mm	81.871345029240	36	       141
Frame#	Time	Sacral			L.Shoulder			Chest			R.Shoulder			Neck			R.ASIS			L.ASIS			R.Thigh.Superior			R.Thigh.Lateral			R.Thigh.Inferior			R.Patella			L.Thigh.Superior			L.Thigh.Lateral			L.Thigh.Inferior			L.Patella			L.Shank.Superior			L.Shank.Lateral			L.Shank.Inferior			R.Shank.Superior			R.Shank.Lateral			R.Shank.Inferior			R.Heel			R.Midfoot.Superior			R.Midfoot.Lateral			R.Toe			L.Heel			L.Midfoot.Lateral			L.Midfoot.Superior			L.Toe			L.Elbow			L.Wrist			R.Elbow			R.Wrist			
		X1	Y1	Z1	X2	Y2	Z2	X3	Y3	Z3	X4	Y4	Z4	X5	Y5	Z5	X6	Y6	Z6	X7	Y7	Z7	X8	Y8	Z8	X9	Y9	Z9	X10	Y10	Z10	X11	Y11	Z11	X12	Y12	Z12	X13	Y13	Z13	X14	Y14	Z14	X15	Y15	Z15	X16	Y16	Z16	X17	Y17	Z17	X18	Y18	Z18	X19	Y19	Z19	X20	Y20	Z20	X21	Y21	Z21	X22	Y22	Z22	X23	Y23	Z23	X24	Y24	Z24	X25	Y25	Z25	X26	Y26	Z26	X27	Y27	Z27	X28	Y28	Z28	X29	Y29	Z29	X30	Y30	Z30	X31	Y31	Z31	X32	Y32	Z32	X33	Y33	Z33	

36	7.657500000000	723.991270519815	1003.724766175233	494.927044981253	863.388492812858	1429.984517311149	302.875826384677	990.922421730063	1363.406927100389	447.002027831493	930.567871510187	1437.443221495859	629.269203173872	865.648587629517	1489.071078244052	457.808523751126	955.572380867683	931.946327580622	591.563439885491	923.120927246169	959.873598132368	319.941443740683	968.032611645974	719.666917395157	564.915375574873	875.726474650003	619.080868110346	630.295155325126	944.568057360418	554.170222090769	551.807010601030	927.276900381898	449.961508503453	567.885081949862	995.833998904544	763.306853279450	352.211135948319	924.531892606748	636.506751400599	292.738174876897	1021.641135198269	571.247493112053	354.306416620198	1031.528452642358	500.922113696317	362.291063012323	1011.599806059639	426.641368922675	355.159950356735	932.133530889730	303.067064752467	307.933515436407	999.533154932078	198.612669890818	377.039266252437	855.765853004835	382.157838840185	573.471866958842	742.150200572631	326.876865182652	634.789568994260	737.375100396643	219.807268646274	578.687941086180	544.250524584331	117.792657608360	547.947642758008	720.683221201182	108.614047149084	590.055680606870	616.036936505674	77.862990494379	622.008308703428	812.083364715283	34.094147353490	618.029908629265	888.733205131977	37.812332432669	427.366273768531	957.541169347853	35.933139734867	341.989163977285	1040.647372328488	98.016786836464	363.477536211186	1167.787932689235	49.486201207781	327.546203178031	788.651940967043	1078.281480297589	204.018617571013	817.815063463391	819.824667812620	201.806901801085	1029.266116471102	1104.341505791601	738.179026126564	1257.427284101373	1143.111493488382	644.796274750872	
37	7.669714285714	724.049527455706	1004.464105182555	492.154638918686	864.341488532335	1430.603292773745	299.895132046349	991.112370325438	1364.394152132062	444.784368054260	929.757378252554	1438.627639118768	626.622423361427	865.754637574844	1489.897614548833	454.781994906577	955.322643224691	932.891845171593	589.473821625005	923.757642595202	960.673628992671	317.857802467891	972.709092667739	721.718839795773	563.239021061791	883.244641417489	619.201642507491	628.922938753777	954.284550394702	555.395632117140	550.745276724486	938.248114792471	449.536155915421	568.040817739279	995.107794210014	762.772375337587	348.763456680081	921.476195245134	636.449121899792	290.997953686597	1018.387202805953	570.371125188456	351.761279190205	1027.637098727831	500.283652443684	360.509805416185	1007.257113073699	426.061273769480	353.697149053100	926.775243981251	302.975279199140	306.912295861427	993.197632961946	198.212960953537	376.450852855302	864.374641459252	382.901081947185	573.266343759948	748.411971797233	332.007178641789	634.080888045908	740.537967307300	224.712592761031	578.823760883542	544.035722840910	131.701881249280	547.751598231990	719.510015366161	112.213440205608	590.258418653728	613.206579094109	87.475189005617	621.821791332315	805.477679887227	33.125948099334	618.058346782087	881.394566908082	37.751708506429	427.247465905115	950.169748633126	35.839407291146	341.819923037660	1033.290225315259	97.907809954904	363.302894822139	1160.459191054939	49.429658161786	327.389168168530	795.488466200271	1077.598204245881	200.028524470612	831.423687027938	819.963498928426	198.002687792775	1019.758223184003	1102.854972496604	736.763440229576	1251.096055638613	1126.546922804917	644.731865933627	
38	7.681928571429	723.920910226465	1005.045351477545	489.427492671055	865.406928322463	1431.122451643846	296.950482837122	991.249387587382	1365.233326322663	442.714582006647	928.728990914136	1439.589960988994	624.100831124783	865.836671217356	1490.606129405311	451.824924869096	954.916416701236	933.725133582694	587.535642399679	924.293471835390	961.274686689938	315.949973084043	977.684750111533	724.026403219858	561.746601137801	891.230478766972	619.505693199068	627.656809146563	964.497099491502	556.976245825641	549.775341292480	949.792686403376	449.568616685085	567.990663375781	994.015848112514	761.982024132149	345.452912492752	918.196192924832	636.333204464043	289.271522714551	1014.820714531990	569.429566180489	349.355568647348	1023.417964346897	499.555191242325	358.705910290210	1002.613825591270	425.413231854282	352.201442638185	921.163433171966	302.765127230162	305.912187431309	986.735583387254	197.761522632968	375.852897226535	873.724470986354	383.964702608736	572.883787473333	755.629695147522	337.454527995174	633.258023118752	744.569807609067	230.131701800288	578.760107057846	545.087630393595	146.492980415827	547.343143482145	719.098552889077	116.589064270466	590.263893309757	611.377230531775	98.122624489591	621.495221691682	799.401924389283	32.264398823824	618.080117728158	874.007715713965	37.672658749929	427.168260567034	942.747567091211	35.715381153271	341.691200847813	1025.921949059902	97.726513748159	363.173292175654	1153.107711198600	49.216848289530	327.283589424672	802.257545877109	1076.995141630744	196.018629750804	845.483878175474	820.418755439246	194.248524766588	1009.926880562781	1101.369635742952	735.270451078059	1243.757602720850	1109.040992659706	644.952986040239	
39	7.694142857143	723.602982263577	1005.468769146568	486.777858399356	866.590556748373	1431.533654139454	294.074262140226	991.342097665134	1365.902920110699	440.819918763256	927.518372408104	1440.328425707352	621.731878383006	865.911548599602	1491.201856117853	448.969232039723	954.346457296382	934.444908817201	585.735334440709	924.699805381362	961.707437509894	314.205896403487	982.829995110756	726.607534822887	560.377200076367	899.562538277328	620.060442044284	626.472131665055	975.021589011939	558.970456778753	548.852682232299	961.761930645237	450.120645719167	567.702895248926	992.592145983561	761.036360255739	342.386383393572	914.818212278816	636.221852681197	287.556798215259	1011.019925524037	568.478506439540	347.137520387133	1018.936148240166	498.774526536796	356.919928740273	997.737134379365	424.731877139941	350.711606743748	915.387759847994	302.479693732637	304.902789086804	980.189532714895	197.286707777721	375.249979988870	883.676726099120	385.386671257618	572.301070134107	763.694526252192	343.168173007901	632.310372461759	749.427749606026	236.010140257862	578.478844411817	547.434105406697	161.817381596651	546.725533605424	719.530078228871	121.737474545331	590.058312704101	610.681377001145	109.568631663553	621.017472431036	794.108853487042	31.688148886569	618.054532115973	866.598239742803	37.592606839034	427.109255943705	935.303390700730	35.579494528498	341.588081645784	1018.562719293355	97.500886154166	363.072099827769	1145.754105543447	48.889897793661	327.214564777181	808.971337173601	1076.460698690528	192.008099189239	859.930905398037	821.208003845642	190.554624858885	999.852417198978	1099.868575279243	733.703583819924	1235.289892260312	1090.714690284369	645.482437567495	
